<svg width="326" height="326" viewBox="0 0 326 326" fill="none" xmlns="http://www.w3.org/2000/svg">
<path d="M539.097 -127.75C498.065 -147.102 453.993 -161.361 407.895 -169C402.323 -158.815 395.738 -145.065 391.178 -133.861C342.041 -141.5 293.917 -141.5 245.792 -133.861C241.233 -145.065 234.648 -158.815 228.569 -169C182.471 -160.852 138.399 -147.102 97.3668 -127.241C14.289 -1.4537 -8.50669 121.787 2.63789 242.991C57.8542 284.241 111.044 309.704 163.728 326C176.899 308.176 188.043 288.824 198.175 268.963C179.431 261.833 161.195 252.667 143.971 242.481C148.531 238.917 153.09 235.352 157.142 231.787C262.003 281.185 375.475 281.185 478.815 231.787C483.374 235.352 487.427 238.917 491.986 242.481C474.763 252.667 456.526 261.833 437.783 268.963C447.914 288.824 459.059 308.176 472.23 326C524.913 309.704 578.103 284.241 633.32 242.991C646.49 102.435 610.524 -19.787 538.591 -127.75H539.097ZM212.359 168.639C180.951 168.639 155.116 139.102 155.116 103.454C155.116 67.8056 180.445 37.7593 212.359 37.7593C244.273 37.7593 270.108 67.2963 269.601 103.454C269.601 139.611 244.273 168.639 212.359 168.639ZM423.599 168.639C392.191 168.639 366.356 139.102 366.356 103.454C366.356 67.8056 391.685 37.7593 423.599 37.7593C455.513 37.7593 481.348 67.2963 480.842 103.454C480.842 139.611 455.513 168.639 423.599 168.639Z" fill="#5865F2"/>
</svg>
