<svg width="352" height="79" viewBox="0 0 352 79" fill="none" xmlns="http://www.w3.org/2000/svg">
<path d="M96.892 27.354C96.892 24.7091 95.9862 23.3842 94.17 23.3842C93.7914 23.3698 93.4177 23.4083 93.0487 23.4902C92.5742 23.5866 92.095 23.6395 91.6062 23.6492C91.1606 23.654 90.7341 23.4709 90.4322 23.1385C90.1111 22.8013 89.9386 22.3436 89.9529 21.8763C89.9529 20.6237 90.6957 19.9974 92.1861 19.9974C92.2196 19.9974 92.488 20.0167 92.9816 20.0504C98.2961 20.4069 100.778 20.5851 100.424 20.5851H100.951L113.76 20.2094C114.009 20.2094 114.93 20.1564 116.525 20.0504C117.091 20.0167 117.604 19.9974 118.068 19.9974C119.913 19.9974 120.833 20.8212 120.833 22.464C120.833 22.7483 120.781 23.6636 120.68 25.2005C120.603 26.3423 120.565 27.3973 120.565 28.3657C120.551 29.2425 120.579 30.1193 120.656 30.9913C120.757 31.7573 120.814 32.5233 120.833 33.2941C120.833 34.6527 120.191 35.332 118.912 35.332C117.632 35.332 116.99 34.3829 116.99 32.4751V29.6713C116.99 26.6554 116.372 24.8777 115.131 24.3381C114.211 23.9431 111.834 23.7455 108.01 23.7455C106.519 23.6974 105.029 23.7455 103.543 23.9093C102.02 24.3092 101.258 25.398 101.258 27.1757V32.5378C101.258 33.9686 101.574 34.7876 102.206 35.0044C102.619 35.0911 103.045 35.1297 103.467 35.1104H105.623C107.832 35.1104 108.939 34.3396 108.939 32.8027C108.93 32.2487 108.887 31.6899 108.805 31.1407C108.724 30.5336 108.676 29.9266 108.671 29.3148C108.671 27.8839 109.304 27.1709 110.564 27.1709C111.824 27.1709 112.457 27.9417 112.457 29.4786C112.457 29.7628 112.342 30.8709 112.112 32.8027C111.93 34.2432 111.829 35.6933 111.815 37.1483C111.815 37.8613 111.887 39.1332 112.03 40.9542C112.064 41.2385 112.155 41.8648 112.299 42.8331C112.395 43.4546 112.447 44.0809 112.457 44.7072C112.533 45.2371 112.356 45.7767 111.978 46.1573C111.599 46.5379 111.067 46.7162 110.535 46.6391C109.289 46.6391 108.666 45.8875 108.666 44.3892C108.681 43.8159 108.724 43.2426 108.8 42.6741C108.877 42.1057 108.92 41.5324 108.935 40.9591C108.935 39.4222 107.923 38.6514 105.896 38.6514H103.496C102.465 38.6514 101.833 38.8296 101.603 39.1862C101.306 39.9136 101.186 40.7085 101.258 41.4938V44.818C101.258 45.3913 101.277 46.1573 101.31 47.1257C101.344 48.306 101.363 49.0913 101.363 49.4863C101.397 50.9172 101.684 51.8084 102.216 52.1649C102.604 52.4155 103.529 52.5407 104.991 52.5407H112.246C114.345 52.5407 115.783 52.2276 116.564 51.6013C117.345 50.975 117.738 49.8043 117.738 48.0892C117.738 47.5544 117.709 46.7595 117.656 45.7045C117.604 44.6494 117.575 43.8545 117.575 43.3197C117.575 41.7106 118.207 40.9061 119.468 40.9061C120.8 40.9061 121.466 41.7299 121.466 43.3727C121.466 44.0135 121.437 45.0011 121.385 46.3211C121.332 47.6412 121.303 48.6288 121.303 49.2695C121.303 49.7706 121.327 50.5125 121.385 51.4953C121.437 52.4781 121.466 53.22 121.466 53.7211C121.466 55.4024 120.647 56.2407 119.012 56.2407C118.624 56.2407 118.001 56.1973 117.144 56.1154C116.717 56.0721 115.936 56.048 114.795 56.048C115.045 56.048 113.66 56.0094 110.636 55.9275C107.612 55.8456 105 55.8071 102.796 55.8071C99.4558 55.8071 96.1827 55.9324 92.9816 56.1829C92.8186 56.1829 92.6605 56.2021 92.5024 56.2359H92.1813C90.6861 56.2359 89.9434 55.5903 89.9434 54.304C89.9434 53.1622 90.4945 52.5889 91.6014 52.5889C91.7788 52.5889 92.258 52.6226 93.0439 52.6949C93.4081 52.8009 93.7867 52.8539 94.1652 52.8539C95.9767 52.8539 96.8872 51.5146 96.8872 48.8311V27.354H96.892ZM141.689 48.5854V45.1552C141.722 43.6907 142.365 42.9584 143.61 42.9584C144.856 42.9584 145.475 43.7774 145.475 45.4202C145.475 49.3177 144.981 52.0349 143.989 53.5717C142.647 55.6433 140.443 56.6839 137.366 56.6839C134.539 56.6839 132.526 55.7734 131.328 53.9523C130.446 52.6274 130.006 50.3776 130.006 47.1979V34.3299C130.006 33.5784 129.661 33.2026 128.971 33.2026H127.226C126.689 33.2219 126.167 33.0147 125.779 32.6389C125.405 32.2824 125.199 31.7862 125.204 31.2707C125.204 30.7649 125.405 30.2831 125.765 29.9314C126.081 29.5653 126.536 29.3533 127.02 29.3437H129.1C129.704 29.3437 130.01 29.0016 130.01 28.3271V22.8061C130.01 21.4475 130.705 20.7682 132.09 20.7682C133.37 20.7682 134.012 21.4475 134.012 22.8061V28.5439C134.012 29.0787 134.333 29.3485 134.97 29.3485H140.783C142.135 29.3485 142.81 29.9748 142.81 31.2226C142.81 32.5474 142.082 33.2074 140.625 33.2074H134.759C134.261 33.2074 134.012 33.5832 134.012 34.3348V47.5255C134.012 51.2785 135.258 53.1526 137.745 53.1526C140.27 53.1526 141.583 51.6302 141.694 48.5951M156.521 21.4186L156.305 31.8633C157.441 30.7119 158.758 29.758 160.21 29.0498C161.533 28.5054 162.952 28.2404 164.38 28.2741C167.447 28.2741 169.905 29.151 171.759 30.8998C173.633 32.6968 174.644 35.2164 174.539 37.8179V46.7692C174.539 48.8793 174.558 50.0404 174.592 50.2523C174.735 52.0397 175.195 52.931 175.977 52.931C176.398 52.8972 176.815 52.8009 177.203 52.6323C177.486 52.5744 177.769 52.5504 178.056 52.5552C179.369 52.5552 180.031 53.1622 180.031 54.3811C180.031 55.5999 179.178 56.207 177.472 56.207C176.791 56.1925 176.116 56.1395 175.445 56.048C174.242 55.889 173.029 55.7975 171.817 55.7782C171.103 55.7686 170.394 55.8023 169.684 55.8842C168.189 56.101 167.269 56.207 166.91 56.207C166.325 56.2262 165.755 56.0239 165.309 55.6433C164.892 55.2916 164.658 54.7713 164.667 54.2221C164.667 53.7644 164.868 53.3308 165.228 53.0418C165.587 52.7238 166.057 52.5504 166.536 52.56C167.01 52.5744 167.475 52.666 167.921 52.8298C168.213 52.931 168.52 52.9888 168.827 52.9888C169.895 52.9888 170.446 51.8277 170.48 49.5056C170.48 49.0768 170.514 48.2385 170.585 46.986V41.7877C170.585 38.1407 170.231 35.6933 169.517 34.4408C168.482 32.5811 166.661 31.6513 164.059 31.6513C161.241 31.6513 159.185 32.6149 157.901 34.5467C157.009 35.8668 156.544 37.9962 156.511 40.9253V44.7843C156.482 45.1504 156.41 45.5069 156.295 45.8586V46.8751C156.295 48.913 156.314 50.0933 156.353 50.4161C156.535 52.1649 157.067 53.0418 157.944 53.0418C158.365 53.0177 158.778 52.9358 159.175 52.8009C159.559 52.666 159.952 52.5889 160.354 52.56C161.523 52.56 162.108 53.1285 162.108 54.2703C162.108 55.5614 161.322 56.2021 159.746 56.2021C159.242 56.2021 158.49 56.1492 157.489 56.0432C156.329 55.9131 155.164 55.8408 154 55.8264C153.391 55.8264 152.553 55.8794 151.479 55.9854C150.046 56.1299 149.136 56.2021 148.738 56.2021C147.272 56.2021 146.538 55.5373 146.538 54.2125C146.538 53.1092 147.224 52.5552 148.604 52.5552C148.954 52.5359 149.304 52.5889 149.634 52.7045C150.061 52.825 150.497 52.902 150.938 52.931C151.518 52.931 151.906 52.3866 152.107 51.2978C152.375 49.0816 152.49 46.8511 152.457 44.6157V35.0189C152.457 29.6568 152.351 26.27 152.136 24.8584C151.925 23.4468 151.426 22.7386 150.645 22.7386C150.267 22.7579 149.893 22.8109 149.524 22.8976C149.141 22.9892 148.748 23.0422 148.35 23.0566C147.138 23.0566 146.534 22.4833 146.534 21.3415C146.534 20.8357 146.773 20.3587 147.176 20.0552C147.612 19.6939 148.158 19.506 148.724 19.5204C148.901 19.5204 149.505 19.5734 150.54 19.6794C151.268 19.7517 151.997 19.7902 152.725 19.7854C153.171 19.771 153.616 19.7276 154.057 19.6505C154.465 19.5783 154.872 19.5349 155.284 19.5156C156.104 19.5156 156.511 20.1082 156.511 21.2933V21.3993L156.521 21.4186ZM206.387 40.1882C206.459 41.0265 206.368 41.8696 206.119 42.6741C205.942 42.9777 205.424 43.1318 204.566 43.1318H187.559C187.243 43.0981 186.927 43.1607 186.653 43.3197C186.495 43.4835 186.419 43.7099 186.438 43.9412C186.356 46.4127 187.219 48.8215 188.843 50.6763C190.343 52.4251 192.538 53.4127 194.834 53.3742C196.362 53.3838 197.862 52.9358 199.137 52.0879C200.349 51.3411 201.255 50.1801 201.677 48.8167L202.161 47.2606C202.348 46.4512 203.1 45.8972 203.924 45.9742C205.242 45.9742 205.903 46.6535 205.903 48.0121C205.903 50.3342 204.729 52.401 202.386 54.2076C200.1 55.9902 197.278 56.9441 194.383 56.9103C190.65 56.9103 187.684 55.6481 185.479 53.1285C183.275 50.6088 182.173 47.222 182.173 42.968C182.173 38.714 183.347 35.067 185.69 32.3547C187.971 29.6664 191.35 28.1682 194.862 28.279C197.968 28.1826 200.968 29.4015 203.129 31.6465C205.319 33.9397 206.493 37.0182 206.383 40.193L206.387 40.1882ZM187.027 38.8393C187.027 39.3403 187.42 39.5908 188.206 39.5908H200.996C201.749 39.5908 202.122 39.3403 202.122 38.8393C202.132 36.9652 201.356 35.173 199.98 33.906C198.653 32.5522 196.842 31.8007 194.949 31.8151C192.922 31.8248 190.976 32.6004 189.49 33.9879C187.847 35.438 187.027 37.0519 187.027 38.8393ZM218.387 30.7167V32.1909C220.026 29.6954 222.824 28.2163 225.8 28.279C228.014 28.1778 230.18 28.939 231.853 30.3987C233.386 31.7814 234.235 33.7711 234.172 35.8427C234.235 37.2205 233.818 38.5743 232.998 39.6776C232.26 40.6363 231.11 41.1855 229.902 41.1518C229.141 41.171 228.398 40.9061 227.823 40.4002C227.276 39.9522 226.965 39.2825 226.97 38.5743C226.97 38.001 227.2 37.447 227.612 37.0471C227.99 36.6232 228.532 36.3775 229.102 36.3775C229.337 36.4064 229.572 36.4594 229.797 36.5413C229.994 36.1799 230.104 35.7752 230.118 35.3609C230.118 34.3155 229.605 33.3375 228.757 32.7353C227.784 31.9982 226.591 31.6176 225.369 31.661C222.594 31.661 220.745 32.9136 219.82 35.4139C219.25 36.9508 218.967 39.2729 218.967 42.3851V45.9213C218.967 48.3156 218.986 49.6549 219.02 49.944C219.197 51.9819 219.753 52.9984 220.687 52.9984C221.176 52.9984 221.665 52.9358 222.139 52.8153C222.475 52.7334 222.82 52.6853 223.165 52.6756C224.31 52.6756 224.885 53.2393 224.885 54.3666C224.885 55.5999 224.157 56.2166 222.7 56.2166H222.484C221.674 56.1973 220.865 56.1347 220.055 56.0287C219.25 55.9227 218.44 55.8601 217.63 55.8408C216.207 55.8408 215.09 55.8745 214.271 55.9468L211.285 56.2166C209.828 56.2166 209.1 55.5903 209.1 54.3377C209.1 53.2296 209.78 52.6756 211.146 52.6756C211.414 52.6708 211.688 52.6853 211.956 52.7286L212.761 52.8876C213.01 52.9454 213.259 52.9791 213.513 52.9936C214.41 52.9936 214.894 52.1698 214.965 50.5269V47.7953L214.807 35.6259C214.702 33.5158 214.165 32.4607 213.207 32.4607C212.814 32.4703 212.421 32.5185 212.033 32.5956C211.644 32.6727 211.251 32.716 210.859 32.7305C209.684 32.7305 209.1 32.1668 209.1 31.0395C209.1 29.8062 209.867 29.1895 211.39 29.1895C211.927 29.204 212.459 29.2473 212.991 29.3244C213.523 29.4015 214.055 29.4448 214.592 29.4593C215.056 29.4448 215.521 29.3967 215.981 29.3244C216.312 29.228 216.652 29.1847 216.992 29.1895C217.917 29.1895 218.377 29.7002 218.377 30.7215M247.729 28.2838C249.871 28.2067 251.97 28.8715 253.681 30.1627V29.9459C253.681 28.6258 254.251 27.961 255.387 27.961C256.523 27.961 257.146 28.5343 257.146 29.6761C257.146 29.8929 257.117 30.4276 257.055 31.2852C256.935 31.9934 256.877 32.7112 256.877 33.429C256.892 34.0553 256.935 34.6816 257.012 35.3079C257.088 35.9294 257.131 36.5557 257.146 37.1868C257.146 38.5454 256.566 39.2247 255.411 39.2247C254.941 39.2825 254.467 39.1235 254.132 38.7911C253.791 38.4587 253.624 37.9866 253.676 37.5096V35.7415C253.643 34.6672 253.025 33.747 251.831 32.981C250.571 32.1957 249.109 31.7959 247.624 31.8296C246.148 31.7766 244.696 32.2198 243.498 33.087C242.463 33.7904 241.84 34.9659 241.835 36.2233C241.835 38.5117 243.407 39.8703 246.541 40.299L249.646 40.7278C255.708 41.5516 258.742 44.0713 258.742 48.2867C258.809 50.7196 257.721 53.0369 255.818 54.5304C253.868 56.1203 251.319 56.9152 248.16 56.9152C245.4 56.973 242.697 56.0865 240.507 54.3955V55.4169C240.507 56.7032 239.904 57.3488 238.691 57.3488C237.378 57.3488 236.717 56.6165 236.717 55.1519C236.87 54.2269 236.976 53.2971 237.038 52.3625C237.11 51.8663 237.143 51.3652 237.143 50.8642C237.148 50.0548 237.076 49.2454 236.933 48.4505C236.808 47.8676 236.741 47.275 236.717 46.6824C236.717 45.4298 237.287 44.8036 238.423 44.8036C239.17 44.8036 239.64 44.9818 239.837 45.3383C240.115 46.2585 240.234 47.2172 240.182 48.1759C240.215 49.7128 241.015 50.9653 242.582 51.9289C244.403 52.9599 246.469 53.4609 248.553 53.379C250.101 53.4416 251.625 52.9647 252.871 52.0397C253.954 51.2592 254.587 49.997 254.577 48.6625C254.577 46.2296 252.656 44.818 248.817 44.423C245.156 44.0327 242.362 43.3101 240.445 42.2502C238.528 41.1951 237.565 39.3451 237.565 36.7002C237.498 34.3396 238.543 32.0849 240.383 30.6155C242.261 29.0594 244.705 28.2838 247.72 28.2838M278.26 38.3093C278.26 36.8785 279.146 36.0595 280.929 35.8427C280.785 34.6479 280.129 33.5688 279.137 32.8943C277.968 32.1331 276.592 31.7621 275.203 31.8199C272.859 31.7621 270.636 32.8654 269.26 34.7684C267.76 36.734 267.013 39.3403 267.013 42.5922C267.013 45.8442 267.717 48.5902 269.126 50.498C270.477 52.3817 272.677 53.4609 274.982 53.3694C276.458 53.3983 277.9 52.9261 279.075 52.0301C280.258 51.1002 281.097 49.7995 281.451 48.3301C281.811 47.0775 282.022 46.3645 282.094 46.1862C282.405 45.5214 283.076 45.1022 283.809 45.1119C284.37 45.0926 284.911 45.3046 285.309 45.6996C285.702 46.0947 285.913 46.6391 285.899 47.1979C285.841 48.3204 285.549 49.4189 285.046 50.4209C284.547 51.5627 283.862 52.613 283.019 53.5332C280.91 55.7878 277.939 57.0211 274.862 56.9103C271.508 57.0308 268.278 55.6096 266.088 53.0514C263.864 50.4788 262.753 47.1016 262.753 42.9198C262.753 38.4876 263.898 34.937 266.189 32.2776C268.479 29.6183 271.532 28.2838 275.337 28.2838C277.9 28.1922 280.416 29.0161 282.429 30.6155C284.245 32.0319 285.295 34.2288 285.256 36.5413C285.304 37.7312 284.911 38.8923 284.164 39.8125C283.479 40.6507 282.443 41.1277 281.365 41.0988C280.551 41.1277 279.76 40.8386 279.151 40.2942C278.581 39.7932 278.26 39.0705 278.27 38.3093M312.883 56.6984C309.969 56.6984 308.172 55.4313 307.497 52.8924C305.681 55.5759 302.834 56.9152 298.962 56.9152C296.082 56.9152 293.782 56.2022 292.056 54.7713C290.346 53.3742 289.387 51.2496 289.469 49.0335C289.339 46.2922 290.82 43.7292 293.255 42.4911C294.031 42.0334 294.865 41.6817 295.732 41.4456C296.427 41.2867 297.821 41.0795 299.92 40.829C302.906 40.5062 304.851 40.0582 305.757 39.4897C306.663 38.9164 307.118 37.8613 307.118 36.3245C307.18 34.9948 306.615 33.7181 305.599 32.8702C304.377 31.9645 302.877 31.5212 301.358 31.6128C299.767 31.6128 298.21 32.0753 296.877 32.9521C296.345 33.3086 296.077 33.6844 296.077 34.0794C296.077 34.224 296.235 34.4022 296.556 34.6142C297.093 35.0574 297.376 35.7463 297.304 36.4401C297.323 37.1146 297.035 37.7649 296.532 38.2082C295.996 38.6803 295.301 38.9308 294.587 38.9067C293.71 38.926 292.871 38.5791 292.267 37.9432C291.649 37.3169 291.314 36.4642 291.333 35.5825C291.333 33.5832 292.32 31.8681 294.294 30.4373C296.393 28.9679 298.909 28.2115 301.468 28.2886C307.938 28.2886 311.177 31.4104 311.177 37.6493V48.4553C311.144 49.4719 311.177 50.4932 311.283 51.5049C311.498 52.7527 312.102 53.379 313.099 53.379C314.345 53.379 314.963 52.242 314.963 49.9729V47.3666C314.963 46.2296 315.504 45.6611 316.592 45.6611C317.747 45.6611 318.322 46.5186 318.322 48.2337V51.5579C318.25 54.9833 316.434 56.6984 312.878 56.6984H312.883ZM306.912 46.0321V42.2261C306.203 42.8958 305.364 43.4112 304.444 43.7244C302.925 44.1243 301.368 44.3748 299.796 44.476C295.761 44.8662 293.739 46.3693 293.739 48.9805C293.686 50.2282 294.232 51.423 295.205 52.1987C296.355 53.0369 297.759 53.4561 299.178 53.379C301.559 53.379 303.438 52.7286 304.804 51.423C306.222 50.0018 306.984 48.0458 306.912 46.0369M328.189 30.8371V32.3643C330.211 29.7002 333.389 28.1826 336.724 28.2886C338.636 28.2886 340.515 28.7944 342.163 29.7628C343.697 30.5577 344.919 31.8537 345.628 33.4339C346.179 34.9611 346.433 36.5798 346.375 38.2033V48.3927C346.375 49.9295 346.395 50.8401 346.428 51.1291C346.605 52.348 347.085 52.955 347.866 52.955C348.287 52.9454 348.704 52.9021 349.121 52.8201C349.481 52.7479 349.845 52.7045 350.214 52.6853C350.659 52.6804 351.091 52.8539 351.412 53.167C351.743 53.4705 351.925 53.8993 351.92 54.3473C351.925 54.8677 351.69 55.3639 351.278 55.6867C350.842 56.048 350.295 56.2359 349.73 56.2214C348.91 56.1925 348.091 56.1203 347.276 56.0046C346.217 55.8649 345.149 55.7975 344.075 55.7878C343.308 55.7782 342.542 55.8167 341.78 55.8938C340.002 56.1106 339.058 56.2166 338.952 56.2166C337.529 56.2166 336.82 55.5903 336.82 54.3377C336.82 53.2296 337.438 52.6756 338.67 52.6756C338.995 52.6756 339.326 52.7142 339.647 52.7816C340.074 52.8876 340.51 52.9599 340.951 52.9984C341.823 52.9984 342.292 52.0156 342.364 50.05V39.9666C342.412 38.6562 342.321 37.3458 342.101 36.0547C341.832 34.7732 341.094 33.6458 340.031 32.8895C338.866 32.0705 337.472 31.6369 336.048 31.6561C333.216 31.6561 331.179 32.6727 329.938 34.7105C329.09 36.1028 328.664 38.4828 328.664 41.8407V48.9708C328.606 50.0548 328.716 51.1388 328.985 52.189C329.133 52.7142 329.617 53.0658 330.159 53.0466C330.557 53.0273 330.949 52.9647 331.333 52.8587C331.731 52.7479 332.143 52.6853 332.56 52.6708C333.662 52.6708 334.213 53.2682 334.213 54.4678C334.213 55.6674 333.504 56.2118 332.08 56.2118C331.798 56.2118 330.873 56.1058 329.306 55.889C328.438 55.7782 327.566 55.7204 326.694 55.73C325.697 55.7493 324.701 55.8167 323.709 55.9468C322.146 56.1251 321.255 56.2166 321.044 56.2166C319.549 56.2166 318.806 55.6096 318.806 54.3907C318.744 53.9138 318.907 53.432 319.247 53.0948C319.587 52.7575 320.071 52.5985 320.546 52.6756C320.886 52.6997 321.221 52.7527 321.552 52.8346C322.026 52.9406 322.506 52.9936 322.99 52.9936C324.078 52.9936 324.638 51.9578 324.677 49.8814V35.5681C324.677 34.7154 324.523 33.8723 324.216 33.0774C323.977 32.6293 323.498 32.3643 322.995 32.4077C322.621 32.4221 322.247 32.48 321.883 32.5667C321.519 32.6582 321.145 32.7112 320.771 32.7257C319.467 32.7257 318.816 32.1427 318.816 30.9817C318.816 29.8206 319.616 29.1847 321.217 29.1847C321.394 29.1847 321.576 29.1991 321.749 29.2377L323.723 29.4545C324.221 29.4593 324.724 29.4159 325.213 29.3196C326.138 29.2329 326.617 29.1847 326.651 29.1847C327.681 29.1847 328.199 29.7291 328.199 30.8227" fill="white"/>
<path d="M16.4345 37.5931C16.4345 35.7536 17.9355 34.259 19.7829 34.259H19.7973L25.3779 34.2782C27.2301 34.2782 28.7311 35.7728 28.7311 37.6171V58.6275C29.3613 58.4407 30.1647 58.2443 31.0499 58.0383C32.3104 57.7413 33.2052 56.6203 33.2052 55.3317V29.2675C33.2052 27.4232 34.7062 25.9286 36.5583 25.9286H42.1534C44.0056 25.9286 45.5065 27.4232 45.5065 29.2675V53.4539C45.5065 53.4539 46.9065 52.8887 48.268 52.3186C49.3023 51.8827 49.9758 50.8719 49.9758 49.7558V20.9179C49.9758 19.0737 51.4768 17.5791 53.329 17.5791H58.9192C60.7714 17.5791 62.2724 19.0737 62.2724 20.9179V44.6589C67.1169 41.1619 72.0336 36.956 75.9304 31.8974C77.0802 30.4076 77.4025 28.4388 76.7867 26.6616C69.633 6.14934 47.1326 -4.69599 26.5325 2.43203C5.93245 9.56005 -4.95933 31.9693 2.19922 52.4815C3.00745 54.7952 4.03216 57.0275 5.25412 59.1544C6.22591 60.8263 8.08771 61.7843 10.0169 61.6119C11.0752 61.5209 12.3886 61.3867 13.957 61.2047C15.3665 61.0418 16.4297 59.8538 16.4297 58.4455V37.5931" fill="white"/>
<path d="M16.418 71.2194C33.8822 84.0265 58.3378 80.1335 71.0395 62.5356C75.902 55.796 78.5214 47.6788 78.5214 39.3455C78.5214 38.4382 78.4785 37.5406 78.4214 36.6477C64.1338 58.1242 37.7541 68.1664 16.418 71.2242" fill="white"/>
</svg>
