<svg width="335" height="332" viewBox="0 0 335 332" fill="none" xmlns="http://www.w3.org/2000/svg">
<path d="M334.799 50.6757C315.45 59.2752 294.565 65.1106 272.76 67.5676C294.873 54.3612 312.072 33.1696 320.057 7.98526C299.172 20.2703 276.138 29.1769 251.568 34.0909C231.912 13.2064 203.963 0 172.944 0C113.361 0 65.1427 48.2187 65.1427 107.801C65.1427 116.401 66.0641 124.386 67.9068 132.371C-21.7738 127.764 -101.012 85.0738 -154.452 19.656C-163.666 35.6266 -169.194 54.0541 -169.194 73.7101C-169.194 111.179 -150.152 144.042 -121.283 163.391C-139.096 162.777 -155.681 157.863 -170.115 149.877V151.106C-170.115 203.317 -132.953 246.929 -83.5061 256.757C-92.4127 259.214 -101.934 260.442 -111.762 260.442C-118.826 260.442 -125.582 259.828 -132.032 258.6C-118.211 301.29 -78.5921 332.617 -31.2947 333.538C-68.1498 362.408 -114.833 379.607 -165.201 379.607C-173.801 379.607 -182.4 378.993 -191 378.072C-143.396 408.784 -86.5773 426.597 -25.7665 426.597C172.637 426.597 281.052 262.285 281.052 119.779C281.052 115.172 281.052 110.565 280.745 105.958C301.936 90.9091 320.057 71.8674 334.492 50.0615" fill="#55ACEE"/>
</svg>
