<svg width="336" height="332" viewBox="0 0 336 332" fill="none" xmlns="http://www.w3.org/2000/svg">
<path d="M335.799 50.6757C316.45 59.2752 295.565 65.1106 273.76 67.5676C295.873 54.3612 313.072 33.1696 321.057 7.98526C300.172 20.2703 277.138 29.1769 252.568 34.0909C232.912 13.2064 204.963 0 173.944 0C114.361 0 66.1427 48.2187 66.1427 107.801C66.1427 116.401 67.0641 124.386 68.9068 132.371C-20.7738 127.764 -100.012 85.0738 -153.452 19.656C-162.666 35.6266 -168.194 54.0541 -168.194 73.7101C-168.194 111.179 -149.152 144.042 -120.283 163.391C-138.096 162.777 -154.681 157.863 -169.115 149.877V151.106C-169.115 203.317 -131.953 246.929 -82.5061 256.757C-91.4127 259.214 -100.934 260.442 -110.762 260.442C-117.826 260.442 -124.582 259.828 -131.032 258.6C-117.211 301.29 -77.5921 332.617 -30.2947 333.538C-67.1498 362.408 -113.833 379.607 -164.201 379.607C-172.801 379.607 -181.4 378.993 -190 378.072C-142.396 408.784 -85.5773 426.597 -24.7665 426.597C173.637 426.597 282.052 262.285 282.052 119.779C282.052 115.172 282.052 110.565 281.745 105.958C302.936 90.9091 321.057 71.8674 335.492 50.0615" fill="white"/>
</svg>
