<svg width="352" height="74" viewBox="0 0 352 74" fill="none" xmlns="http://www.w3.org/2000/svg">
<path d="M29.9348 34.9691C31.4811 37.7048 28.0317 38.5374 26.4062 38.696C23.948 38.9339 23.4326 37.5066 23.9282 35.7224C24.0868 35.0881 24.4436 34.5132 24.9194 34.0771C25.415 33.6409 26.0295 33.3832 26.6837 33.3039C27.3181 33.2445 27.9723 33.3634 28.5471 33.6608C29.122 33.9581 29.5978 34.4141 29.9348 34.9691Z" fill="white"/>
<path d="M39.5687 29.9136C37.7648 43.7109 61.9696 40.8365 61.5137 51.8189C63.8925 48.7065 64.9234 40.2418 57.9057 35.8805C51.6414 31.9951 43.4938 34.1162 39.5687 29.9334V29.9136Z" fill="white"/>
<path d="M53.5061 24.7212C53.3471 24.5822 53.1882 24.4232 53.0293 24.2842C53.1882 24.4232 53.3471 24.5822 53.5061 24.7212Z" fill="white"/>
<path d="M59.1347 34.7708C58.9167 34.3347 58.659 33.958 58.3814 33.5814C57.5687 32.4712 56.3991 31.6783 55.0709 31.3215C54.1788 31.0836 53.2867 30.9448 52.3748 30.8853C51.4431 30.8259 50.5114 30.7862 49.5599 30.7268C47.6568 30.6276 45.6942 30.4294 43.7911 29.8743C43.3154 29.7356 42.8396 29.5968 42.3836 29.4184C42.1458 29.3391 41.9277 29.24 41.6898 29.1408C41.4519 29.0417 41.214 28.9228 40.9761 28.8038C40.0841 28.3082 39.2515 27.6937 38.4982 26.9999C37.0312 25.632 35.8814 24.066 34.7118 22.5593C33.6215 21.0527 32.4519 19.5858 31.203 18.1981C29.9739 16.8303 28.5268 15.7003 26.9013 14.8281C25.2361 13.9756 23.4123 13.4602 21.5488 13.3016C23.4916 13.0836 25.4343 13.3215 27.2581 13.9955C29.1017 14.7091 30.7867 15.7796 32.214 17.1673C33.1457 18.0395 34.018 18.9911 34.8308 19.9823C40.8969 18.7928 45.8132 19.8435 49.5797 21.9052L49.659 21.9448C50.8682 22.599 51.9982 23.3919 53.029 24.284C53.1876 24.4228 53.3462 24.5814 53.5048 24.7201C54.3176 25.4536 55.051 26.2664 55.7449 27.1188L55.8043 27.1981C58.0444 30.0329 59.1347 32.9867 59.1347 34.7708Z" fill="white"/>
<path d="M21.8256 15.0665C23.3719 15.2846 24.9578 15.9189 25.9688 17.0885C26.9798 18.278 27.3565 19.8044 27.6538 21.2714C27.8917 22.4013 28.0899 23.5511 28.5261 24.6216C28.7441 25.137 29.0613 25.5929 29.319 26.0885C29.5371 26.5048 29.9336 26.8617 30.0921 27.2978C30.112 27.3573 30.1318 27.4366 30.112 27.496C30.112 27.5555 30.0723 27.6348 30.0327 27.6744C29.4974 28.2692 28.0305 27.615 27.4952 27.3374C26.5437 26.8617 25.6913 26.2075 24.9974 25.4145C22.797 22.9564 21.6472 19.4277 21.7265 16.1965C21.7265 15.8 21.786 15.4233 21.8454 15.0269L21.8256 15.0665Z" fill="white"/>
<path d="M47.6961 42.7798C44.3458 52.1564 59.5111 58.4406 53.8414 67.956C59.6696 65.5375 62.4252 58.2423 60.0067 52.4538C57.8855 47.3591 51.641 45.5155 47.6961 42.7798Z" fill="white"/>
<path d="M27.6546 55.0303C28.5665 54.3364 29.5577 53.7814 30.6083 53.3452C31.6788 52.9091 32.789 52.5919 33.9189 52.3937C36.159 51.9576 38.3793 51.8585 40.2625 51.1052C41.1942 50.7483 42.0268 50.2131 42.7603 49.5391C43.474 48.8849 44.0092 48.0523 44.3462 47.1404C44.6832 46.169 44.822 45.158 44.7427 44.1272C44.6634 43.0369 44.4057 41.9466 44.0092 40.9355C44.8418 41.8078 45.4564 42.8585 45.7735 44.0281C46.0907 45.1977 46.1304 46.4069 45.8727 47.5963C45.5753 48.8452 44.9409 49.9752 44.0489 50.8871C43.1568 51.7593 42.0863 52.4333 40.9167 52.8496C39.7868 53.2461 38.6171 53.484 37.4277 53.5633C36.2779 53.6624 35.1678 53.6822 34.0775 53.7417C31.8771 53.8408 29.6964 54.2571 27.6348 55.0104L27.6546 55.0303Z" fill="white"/>
<path d="M49.025 71.5047C48.688 71.7822 48.351 72.0597 47.9744 72.3174C47.5977 72.5553 47.2211 72.7734 46.8048 72.9716C45.9523 73.3879 45.0404 73.5862 44.0889 73.5862C41.5514 73.5465 39.7475 71.6434 38.6968 69.5025C37.9832 68.0355 37.4876 66.4694 36.6351 65.0619C35.4259 63.0597 33.3444 61.4738 30.9061 61.7712C29.9149 61.8901 28.9832 62.3461 28.4281 63.2183C26.981 65.4782 29.0625 68.65 31.7188 68.1941C31.9369 68.1544 32.1748 68.095 32.373 68.0157C32.5911 67.9166 32.7893 67.7976 32.9479 67.6589C33.3246 67.3417 33.6021 66.9452 33.7607 66.4892C33.9391 66.0135 33.9788 65.4981 33.8796 65.0025C33.7607 64.487 33.4633 64.0311 33.0272 63.7337C33.5426 63.9716 33.9391 64.4077 34.1373 64.9232C34.3554 65.4584 34.3951 66.0531 34.2959 66.628C34.1968 67.2227 33.9391 67.7778 33.5426 68.2536C33.3246 68.4914 33.0867 68.6897 32.829 68.8681C32.5713 69.0267 32.2739 69.1655 31.9964 69.2646C31.4017 69.4628 30.7673 69.5421 30.1329 69.4628C29.2409 69.3439 28.4083 68.9672 27.7144 68.4122C26.9017 67.758 26.2871 66.9055 25.5338 66.1721C24.6814 65.28 23.6704 64.5465 22.5602 63.9914C21.7871 63.6544 20.9942 63.3967 20.1814 63.258C19.7651 63.1787 19.3488 63.1192 18.9325 63.0597C18.7343 63.0597 17.8025 62.8417 17.6836 62.9606C18.9721 61.7712 20.3796 60.7007 21.8862 59.7888C23.4325 58.8769 25.0779 58.1633 26.8025 57.6677C28.5867 57.1522 30.4699 57.0135 32.3136 57.2514C33.2651 57.3703 34.1968 57.6082 35.0889 57.965C36.0206 58.3417 36.873 58.8769 37.6263 59.5311C38.3598 60.2249 38.9744 61.0773 39.3907 61.9892C39.7673 62.8615 40.0647 63.7734 40.2431 64.7051C40.7783 67.5003 40.5801 71.8218 44.2277 72.4562C44.4259 72.4959 44.6043 72.5157 44.8025 72.5355H45.3973C45.8136 72.5355 46.21 72.4562 46.6065 72.3769C47.4391 72.1787 48.2519 71.9011 49.025 71.5443V71.5047Z" fill="white"/>
<path d="M27.9116 68.4714L27.8125 68.3921L27.9116 68.4714Z" fill="white"/>
<path d="M24.641 29.1013C24.5022 29.6168 24.2841 30.0925 23.967 30.5088C23.3723 31.2819 22.5991 31.8767 21.7071 32.2533C20.8943 32.6101 20.0617 32.8282 19.1894 32.9273C18.9912 32.9472 18.8128 32.967 18.6145 32.9868C18.0595 33.0066 17.5441 33.2049 17.1079 33.5419C16.6718 33.8789 16.3745 34.3546 16.2159 34.8899C16.1564 35.1476 16.0969 35.4251 16.0771 35.7027C15.9978 36.4163 15.978 37.1498 15.8987 38.022C15.7203 39.5286 15.2841 40.9956 14.6101 42.3635C13.7379 44.1872 12.7863 45.6542 13.0044 47.7753C13.1432 49.1432 13.8568 50.0551 14.7687 51.0066C16.4339 52.7313 20.1806 53.4846 19.348 57.7269C18.8524 60.2445 14.6696 62.9009 8.82159 63.8326C9.39648 63.7533 8.06828 61.4934 7.98899 61.3546C7.35463 60.3635 6.68062 59.4317 6.1652 58.3613C5.19383 56.2798 4.73789 53.8811 5.13436 51.6013C5.55066 49.2027 7.31498 47.359 8.78194 45.5353C10.5264 43.3546 12.37 40.5 12.7665 37.6652C12.8656 36.9714 12.9251 36.119 13.0837 35.2665C13.2225 34.315 13.5198 33.4031 13.956 32.5507C14.2533 31.9956 14.6498 31.4802 15.1057 31.0639C15.3436 30.8458 15.5022 30.5286 15.5617 30.2115C15.6212 29.8745 15.5617 29.5375 15.3833 29.2599L6.06608 12.37L19.4868 29.0022C19.6454 29.2005 19.8238 29.359 20.0617 29.4582C20.2797 29.5771 20.5176 29.6366 20.7753 29.6366C21.0132 29.6366 21.2709 29.5969 21.489 29.4978C21.7071 29.3987 21.9053 29.2401 22.0639 29.0617C22.2423 28.8634 22.3216 28.6057 22.3414 28.348C22.3414 28.0903 22.2621 27.8326 22.1035 27.6145C21.2313 26.4846 20.2996 25.3348 19.4075 24.2247L16.0375 20.022L9.25771 11.6366L0 0L10.1101 10.8833L17.326 18.8921L20.9141 22.8965C22.1035 24.2445 23.293 25.5529 24.5022 26.9802L24.7004 27.2181L24.7401 27.5947C24.7996 28.0903 24.7599 28.6057 24.6608 29.1013H24.641Z" fill="white"/>
<path d="M27.7341 68.3529C27.08 67.8573 26.5051 67.2626 26.0293 66.6084C26.5447 67.2428 27.1196 67.8177 27.7341 68.3529Z" fill="white"/>
<path fill-rule="evenodd" clip-rule="evenodd" d="M202.46 23.3913C195.938 25.0366 192.885 30.1512 194.749 36.2966C195.542 38.9331 197.98 41.5895 201.429 43.5917C207.654 47.1798 209.478 48.627 210.548 50.8274C211.44 52.6512 211.52 53.2657 211.064 54.9111C210.013 58.7966 207.277 60.9375 203.352 60.9375C199.427 60.9375 196.533 58.6975 195.898 54.9904C195.641 53.5036 195.343 53.0278 194.61 53.0278C193.757 53.0278 193.658 53.4243 193.658 57.1908V61.3538L196.255 62.2459C200.319 63.6336 206.108 63.4552 209.557 61.8693C216.277 58.7569 218.854 52.5917 215.841 46.823C214.711 44.6622 211.876 42.2635 207.02 39.3296C201.925 36.2569 199.645 34.0168 199.308 31.7371C198.793 28.2481 201.945 25.3538 206.246 25.3538C209.617 25.3538 211.064 26.1666 212.253 28.6644C213.006 30.2305 213.542 30.7459 214.414 30.7657C215.385 30.7657 215.544 30.6071 215.286 29.6754C215.128 29.0609 214.989 27.5344 214.989 26.2657C214.989 24.66 214.751 23.8869 214.216 23.6886C212.768 23.1336 204.304 22.9155 202.44 23.3913H202.46ZM71.623 24.8582C71.623 25.5719 71.96 25.8494 72.8125 25.8494C75.2112 25.8494 75.3301 26.5433 75.6076 40.8759C75.8455 53.4045 75.9248 54.3957 76.9358 56.2591C78.3631 58.9155 80.3257 60.6798 83.2993 62.0279C85.3411 62.9596 86.6495 63.1578 90.7332 63.1578C95.1737 63.1578 95.9865 63.019 98.5438 61.7701C100.11 60.997 102.053 59.5697 102.865 58.5785C105.7 55.149 105.998 53.5036 106.315 39.5278C106.632 26.0675 106.672 25.8494 108.971 25.8296C109.506 25.8296 109.843 25.4331 109.843 24.8384C109.843 23.9067 109.506 23.8472 103.896 23.8472C98.286 23.8472 97.949 23.9067 97.949 24.7988C97.949 25.5124 98.3455 25.79 99.5548 25.9089C102.191 26.1666 102.409 27.1776 102.409 39.4485C102.409 51.8979 101.993 54.2767 99.3367 56.7944C96.8587 59.1336 94.8962 59.9265 91.5063 59.9265C86.6495 59.9265 83.22 57.6666 82.09 53.7415C81.7134 52.4133 81.5746 47.5763 81.6737 39.1512L81.8125 26.5433L83.557 25.9882C84.5085 25.6908 85.3609 25.0763 85.4601 24.6203C85.5988 23.9067 84.8059 23.8274 78.6407 23.8274C71.9799 23.8274 71.6627 23.867 71.6627 24.8186L71.623 24.8582ZM117.773 24.8582C117.773 25.6314 118.11 25.8494 119.24 25.8494C121.757 25.8494 123.185 26.8208 123.76 28.9419C124.077 30.1512 124.216 35.8803 124.136 44.0873C123.958 58.7371 123.76 59.6886 120.727 60.3032C119.735 60.5014 119.26 60.8979 119.26 61.5124C119.26 62.3847 119.735 62.4442 126.198 62.4442C132.661 62.4442 133.136 62.3649 133.136 61.5521C133.136 60.9177 132.502 60.5014 130.936 60.0851C128.993 59.5697 128.676 59.2723 128.2 57.627C127.605 55.5058 127.467 33.2437 128.042 33.3032C128.24 33.323 130.163 35.3847 132.324 37.8825C134.464 40.3803 140.352 46.9221 145.387 52.4331C153.257 61.0565 154.744 62.4442 155.973 62.4442H157.42L157.559 44.9199C157.658 32.4706 157.876 27.2371 158.273 26.8208C158.59 26.5036 159.601 26.0873 160.513 25.9089C161.484 25.7107 162.178 25.2745 162.178 24.8582C162.178 24.2635 160.949 24.1049 155.359 24.0058C148.797 23.867 148.539 23.9067 148.539 24.8781C148.539 25.6115 148.857 25.8891 149.749 25.8891C150.423 25.8891 151.592 26.4243 152.346 27.0785L153.733 28.2679L153.892 40.182C153.971 46.9023 153.852 52.0961 153.614 52.0961C153.376 52.0961 151.85 50.5895 150.244 48.7657C148.638 46.9221 144.059 41.8671 140.055 37.5256C136.07 33.1842 131.709 28.3472 130.361 26.8208L127.923 24.0256L122.828 23.986C118.05 23.9463 117.733 24.0058 117.733 24.9375L117.773 24.8582ZM169.87 24.8582C169.87 25.6115 170.207 25.8494 171.257 25.8494C172.031 25.8494 173.081 26.1666 173.616 26.5433C174.528 27.1974 174.588 28.0499 174.727 41.7481C174.905 58.8362 174.766 59.8076 171.832 60.2635C170.346 60.5014 169.87 60.7988 169.87 61.4926C169.87 62.3649 170.365 62.4243 177.304 62.4243C184.242 62.4243 184.738 62.3847 184.738 61.4331C184.738 60.7393 184.401 60.4419 183.588 60.4419C182.953 60.4419 182.002 60.1248 181.487 59.7481C180.575 59.0741 180.515 58.2217 180.376 43.453C180.238 28.3076 180.257 27.8318 181.249 26.8406C181.804 26.2855 182.815 25.8296 183.509 25.8296C184.42 25.8296 184.757 25.5719 184.757 24.8384C184.757 23.8869 184.42 23.8472 177.324 23.8472C170.227 23.8472 169.89 23.8869 169.89 24.8384L169.87 24.8582ZM221.828 24.8582C221.987 25.4728 222.502 25.8494 223.176 25.8494C223.771 25.8494 224.762 26.3648 225.357 26.9992C225.971 27.6336 229.361 35.7613 233.048 45.4155L239.65 62.682L241.374 62.8208L243.099 62.9596L247.738 50.7085C250.295 43.9684 252.634 37.9221 252.971 37.2679C253.526 36.1578 253.665 36.3164 255.152 40.2415C256.024 42.5212 258.343 48.5675 260.306 53.6622L263.874 62.9397H265.44C266.313 62.9397 267.125 62.6424 267.264 62.2856C267.403 61.9287 269.683 56.0807 272.339 49.301C274.995 42.5212 277.929 35.008 278.861 32.6093C281.002 27.138 281.418 26.464 283.123 25.8891C283.876 25.6314 284.491 25.0763 284.491 24.6402C284.491 23.986 283.579 23.867 278.544 23.867C272.914 23.867 272.597 23.9265 272.597 24.8582C272.597 25.5719 272.934 25.8494 273.786 25.8494C275.709 25.8494 276.561 26.3648 276.561 27.5741C276.561 28.5653 267.105 54.2173 266.531 54.812C266.174 55.1688 257.63 31.3406 257.332 29.1203C257.035 26.9596 257.947 25.8494 260.048 25.8494C260.861 25.8494 261.198 25.5719 261.198 24.8582C261.198 23.9067 260.861 23.867 253.506 23.867C246.152 23.867 245.815 23.9067 245.815 24.8582C245.815 25.4133 246.152 25.8494 246.588 25.8494C248.134 25.8494 250.196 27.3362 250.711 28.8428C251.465 31.0036 250.89 33.2041 246.429 45.0785L242.643 55.1688L241.83 53.2459C241.374 52.1952 239.055 45.9309 236.636 39.3494C231.898 26.4243 231.839 25.8494 234.971 25.8494C236.061 25.8494 236.398 25.6115 236.398 24.8582C236.398 23.9067 236.061 23.867 229.004 23.867C221.947 23.867 221.61 23.9067 221.868 24.8582H221.828ZM322.315 25.1952C322.315 25.1952 322.315 25.8692 322.394 26.0675C322.473 26.2459 323.009 26.3252 323.009 26.3252C323.346 26.4045 323.663 26.4838 323.96 26.5631C325.467 26.9397 326.517 27.1974 326.934 28.1886C327.211 28.8626 327.231 31.1622 327.231 43.5719C327.231 56.6358 327.231 58.2415 326.874 59.1138C326.438 60.1842 325.605 60.7591 323.702 61.2944C323.702 61.2944 322.85 61.5323 322.632 61.7503C322.394 61.9684 322.354 62.4243 322.354 62.4243C322.354 62.4243 322.354 62.8605 322.533 63.0785C322.731 63.2966 323.246 63.1975 323.246 63.1975H328.222L336.449 63.2768C336.449 63.2768 336.786 63.3164 336.965 63.0983C337.143 62.8803 337.103 62.4442 337.103 62.4442C337.103 62.4442 337.103 61.9684 336.885 61.7701C336.667 61.5521 335.835 61.3538 335.835 61.3538C333.971 60.8979 333.02 60.3032 332.603 59.3318C332.286 58.6182 332.246 56.6754 332.207 52.6115V46.6842C332.405 46.8032 332.603 46.9419 332.802 47.0807C333.753 47.7547 334.943 48.5675 339.383 48.7063C344.755 48.8648 348.006 46.4662 349.929 43.6908C351.852 40.9155 352.605 36.5344 351.178 31.8957C349.771 27.2371 345.628 24.4221 339.799 24.1446C336.766 23.986 332.346 24.1446 329.868 24.2635L329.174 24.3032C326.934 24.4023 324.238 24.6203 322.909 24.7393C322.553 24.7789 322.513 24.7789 322.414 24.8979C322.315 25.0366 322.335 25.2745 322.335 25.2745L322.315 25.1952ZM344.18 43.4133C346.341 41.3715 346.381 38.1996 346.381 36.1578C346.163 32.9662 344.874 26.8406 337.599 26.8406C335.894 26.7613 332.425 27.0389 332.326 29.3979C332.227 29.8142 332.167 32.7283 332.207 37.2085L332.246 44.345L332.98 44.7415H333.02C333.416 44.9794 333.951 45.2569 334.863 45.4353C337.757 46.0102 342.02 45.4353 344.18 43.4133ZM298.665 24.4816C299.2 24.2833 299.557 24.1446 299.557 24.1446C299.557 24.1446 300.37 23.8076 300.628 24.1446C300.707 24.2437 301.004 24.997 301.718 26.8604C301.857 27.2173 302.015 27.6336 302.194 28.0895C303.264 30.8648 304.83 34.8494 305.643 36.9507C306.456 39.0521 308.061 43.1952 309.231 46.1688C310.381 49.1424 311.868 52.9486 312.522 54.6534C313.176 56.3384 314.028 58.1027 314.246 58.4199C314.365 58.5785 314.484 58.7767 314.603 58.9948C315.119 59.8274 315.793 60.9574 317.161 61.1953C317.161 61.1953 318.231 61.3737 318.39 61.5323C318.548 61.6908 318.588 62.008 318.588 62.008V62.5829C318.588 62.5829 318.588 62.7217 318.489 62.8605C318.409 62.9794 318.072 62.9596 318.072 62.9596H309.826L303.958 62.9992C303.958 62.9992 303.76 63.019 303.641 62.9199C303.522 62.8208 303.462 62.5631 303.462 62.5631V62.127C303.462 62.127 303.423 61.8098 303.641 61.5124C303.879 61.2349 304.81 61.1953 304.81 61.1953C306.594 61.0367 307.288 59.5301 307.665 58.7371L307.744 58.5785C308.141 57.7657 307.982 57.2503 306.238 52.9287C305.088 50.0939 304.691 49.2811 304.414 49.2217C304.216 49.1622 301.143 49.1622 297.575 49.182L291.112 49.2217L290.735 50.2922C289.625 53.3649 288.614 56.4177 288.476 57.2503C288.178 58.9353 288.594 60.7988 291.072 61.1358C291.072 61.1358 291.984 61.2547 292.242 61.453C292.48 61.6314 292.579 62.1071 292.579 62.1071V62.5433C292.579 62.5433 292.539 62.7415 292.361 62.9001C292.202 63.0389 291.766 62.9794 291.766 62.9794H285.581L279.614 63.0389C279.614 63.0389 279.357 63.0389 279.178 62.9397C279 62.8406 278.96 62.6424 278.96 62.6424V62.2261C278.96 62.2261 278.92 61.9486 279.257 61.6314C279.594 61.2944 280.487 61.2151 280.487 61.2151C282.112 60.9574 283.044 59.2129 283.579 58.2217C283.619 58.1424 283.658 58.0829 283.698 58.0036C283.916 57.6071 284.868 55.3472 285.819 52.9486C286.771 50.5697 287.841 47.8935 288.198 47.0014C289.407 44.008 290.537 41.1534 292.282 36.812C293.233 34.4331 294.641 30.9045 295.414 28.9816L296.821 25.4926L298.764 24.4816H298.665ZM298.15 32.9662C298.447 33.7195 298.903 34.8494 299.161 35.4838C299.418 36.1181 300.152 37.9221 300.786 39.4684C301.42 41.0345 302.194 42.9177 302.511 43.6908C302.828 44.4441 303.086 45.1182 303.086 45.1578C303.086 45.1974 300.707 45.2371 297.793 45.2371C294.462 45.2371 292.5 45.1776 292.5 45.0587C292.5 44.9596 292.619 44.5829 292.757 44.2261C292.976 43.6512 294.066 40.5389 296.445 33.6402C296.821 32.5697 297.158 31.638 297.198 31.5587C297.376 31.2811 297.575 31.5983 298.11 32.9662H298.15Z" fill="white"/>
</svg>
